<svg width="866" height="332" viewBox="0 0 866 332" fill="none" xmlns="http://www.w3.org/2000/svg">
<path d="M190 255C191.933 255 193.5 253.433 193.5 251.5C193.5 249.567 191.933 248 190 248L190 255ZM89.5251 249.025C88.1583 250.392 88.1583 252.608 89.5251 253.975L111.799 276.249C113.166 277.616 115.382 277.616 116.749 276.249C118.116 274.882 118.116 272.666 116.749 271.299L96.9497 251.5L116.749 231.701C118.116 230.334 118.116 228.118 116.749 226.751C115.382 225.384 113.166 225.384 111.799 226.751L89.5251 249.025ZM190 248L92 248L92 255L190 255L190 248Z" fill="black"/>
<rect x="281.5" y="331.5" width="281" height="160" rx="29.5" transform="rotate(-180 281.5 331.5)" stroke="black"/>
<path d="M429.5 116.5C429.5 118.433 431.067 120 433 120C434.933 120 436.5 118.433 436.5 116.5L429.5 116.5ZM435.475 42.0251C434.108 40.6583 431.892 40.6583 430.525 42.0251L408.251 64.299C406.884 65.6658 406.884 67.8819 408.251 69.2487C409.618 70.6156 411.834 70.6156 413.201 69.2487L433 49.4497L452.799 69.2487C454.166 70.6156 456.382 70.6156 457.749 69.2487C459.116 67.8819 459.116 65.6658 457.749 64.299L435.475 42.0251ZM436.5 116.5L436.5 44.5L429.5 44.5L429.5 116.5L436.5 116.5Z" fill="#969696"/>
<rect x="292.5" y="0.5" width="281" height="160" rx="29.5" stroke="#969696"/>
<path d="M436.5 215.5C436.5 213.567 434.933 212 433 212C431.067 212 429.5 213.567 429.5 215.5L436.5 215.5ZM430.525 289.975C431.892 291.342 434.108 291.342 435.475 289.975L457.749 267.701C459.116 266.334 459.116 264.118 457.749 262.751C456.382 261.384 454.166 261.384 452.799 262.751L433 282.55L413.201 262.751C411.834 261.384 409.618 261.384 408.251 262.751C406.884 264.118 406.884 266.334 408.251 267.701L430.525 289.975ZM429.5 215.5L429.5 287.5L436.5 287.5L436.5 215.5L429.5 215.5Z" fill="#969696"/>
<rect x="573.5" y="331.5" width="281" height="160" rx="29.5" transform="rotate(-180 573.5 331.5)" stroke="#969696"/>
<path d="M676 248C674.067 248 672.5 249.567 672.5 251.5C672.5 253.433 674.067 255 676 255L676 248ZM776.475 253.975C777.842 252.608 777.842 250.392 776.475 249.025L754.201 226.751C752.834 225.384 750.618 225.384 749.251 226.751C747.884 228.118 747.884 230.334 749.251 231.701L769.05 251.5L749.251 271.299C747.884 272.666 747.884 274.882 749.251 276.249C750.618 277.616 752.834 277.616 754.201 276.249L776.475 253.975ZM676 255L774 255L774 248L676 248L676 255Z" fill="black"/>
<rect x="584.5" y="171.5" width="281" height="160" rx="29.5" stroke="black"/>
</svg>
